CATALOG 0000000000000
FILE "Voice Idol Maniacs - Pool Bar Story (Japan) (Disc 1) (2M) (Track 01).bin" BINARY
  TRACK 01 MODE1/2352
    INDEX 01 00:00:00
FILE "Voice Idol Maniacs - Pool Bar Story (Japan) (Disc 1) (2M) (Track 02).bin" BINARY
  TRACK 02 MODE2/2352
    INDEX 00 00:00:00
    INDEX 01 00:03:00
FILE "Voice Idol Maniacs - Pool Bar Story (Japan) (Disc 1) (2M) (Track 03).bin" BINARY
  TRACK 03 AUDIO
    INDEX 00 00:00:00
    INDEX 01 00:02:00
FILE "Voice Idol Maniacs - Pool Bar Story (Japan) (Disc 1) (2M) (Track 04).bin" BINARY
  TRACK 04 AUDIO
    INDEX 00 00:00:00
    INDEX 01 00:02:00
    INDEX 02 00:05:51
    INDEX 03 00:05:53
    INDEX 04 00:08:45
    INDEX 05 00:08:47
    INDEX 06 00:10:72
    INDEX 07 00:10:74
    INDEX 08 00:13:20
    INDEX 09 00:13:22
    INDEX 10 00:16:07
    INDEX 11 00:16:09
    INDEX 12 00:19:43
    INDEX 13 00:19:45
    INDEX 14 00:23:00
    INDEX 15 00:23:02
    INDEX 16 00:25:55
    INDEX 17 00:25:57
    INDEX 18 00:29:47
    INDEX 19 00:29:49
    INDEX 20 00:33:42
    INDEX 21 00:33:44
    INDEX 22 00:36:28
    INDEX 23 00:36:30
    INDEX 24 00:39:27
    INDEX 25 00:39:29
    INDEX 26 00:43:03
    INDEX 27 00:43:05
    INDEX 28 00:45:39
    INDEX 29 00:45:41
    INDEX 30 00:45:43
    INDEX 31 00:45:45
    INDEX 32 00:49:27
    INDEX 33 00:49:29
    INDEX 34 00:52:48
    INDEX 35 00:52:50
    INDEX 36 00:54:56
    INDEX 37 00:54:58
    INDEX 38 00:57:28
    INDEX 39 00:57:30
    INDEX 40 01:00:57
    INDEX 41 01:00:59
    INDEX 42 01:04:12
    INDEX 43 01:04:14
    INDEX 44 01:06:69
    INDEX 45 01:06:71
    INDEX 46 01:09:49
    INDEX 47 01:09:51
    INDEX 48 01:13:04
    INDEX 49 01:13:06
    INDEX 50 01:16:38
    INDEX 51 01:16:40
    INDEX 52 01:19:72
    INDEX 53 01:19:74
    INDEX 54 01:22:30
    INDEX 55 01:22:32
    INDEX 56 01:25:32
    INDEX 57 01:25:34
    INDEX 58 01:27:59
    INDEX 59 01:27:61
FILE "Voice Idol Maniacs - Pool Bar Story (Japan) (Disc 1) (2M) (Track 05).bin" BINARY
  TRACK 05 AUDIO
    INDEX 00 00:00:00
    INDEX 01 00:02:00
    INDEX 02 00:07:08
    INDEX 03 00:07:10
    INDEX 04 00:10:65
    INDEX 05 00:10:67
    INDEX 06 00:13:51
    INDEX 07 00:13:53
    INDEX 08 00:17:34
    INDEX 09 00:17:36
    INDEX 10 00:20:61
    INDEX 11 00:20:63
    INDEX 12 00:24:17
    INDEX 13 00:24:19
    INDEX 14 00:29:12
    INDEX 15 00:29:14
    INDEX 16 00:31:44
    INDEX 17 00:31:46
    INDEX 18 00:35:25
    INDEX 19 00:35:27
    INDEX 20 00:37:69
    INDEX 21 00:37:71
    INDEX 22 00:40:19
    INDEX 23 00:40:21
    INDEX 24 00:45:30
    INDEX 25 00:45:32
    INDEX 26 00:47:54
    INDEX 27 00:47:56
    INDEX 28 00:49:03
    INDEX 29 00:49:05
    INDEX 30 00:49:07
    INDEX 31 00:49:09
    INDEX 32 00:55:54
    INDEX 33 00:55:56
    INDEX 34 00:58:61
    INDEX 35 00:58:63
    INDEX 36 01:01:70
    INDEX 37 01:01:72
    INDEX 38 01:05:51
    INDEX 39 01:05:53
    INDEX 40 01:09:09
    INDEX 41 01:09:11
    INDEX 42 01:13:15
    INDEX 43 01:13:17
    INDEX 44 01:17:57
    INDEX 45 01:17:59
    INDEX 46 01:19:52
    INDEX 47 01:19:54
    INDEX 48 01:23:49
    INDEX 49 01:23:51
    INDEX 50 01:25:65
    INDEX 51 01:25:67
    INDEX 52 01:28:17
    INDEX 53 01:28:19
    INDEX 54 01:32:64
    INDEX 55 01:32:66
    INDEX 56 01:35:56
    INDEX 57 01:35:58
    INDEX 58 01:37:17
    INDEX 59 01:37:19
FILE "Voice Idol Maniacs - Pool Bar Story (Japan) (Disc 1) (2M) (Track 06).bin" BINARY
  TRACK 06 AUDIO
    INDEX 00 00:00:00
    INDEX 01 00:02:00
    INDEX 02 00:06:18
    INDEX 03 00:06:20
    INDEX 04 00:08:08
    INDEX 05 00:08:10
    INDEX 06 00:11:35
    INDEX 07 00:11:37
    INDEX 08 00:14:21
    INDEX 09 00:14:23
    INDEX 10 00:16:74
    INDEX 11 00:17:01
    INDEX 12 00:19:14
    INDEX 13 00:19:16
    INDEX 14 00:22:28
    INDEX 15 00:22:30
    INDEX 16 00:26:48
    INDEX 17 00:26:50
    INDEX 18 00:31:63
    INDEX 19 00:31:65
    INDEX 20 00:33:08
    INDEX 21 00:33:10
    INDEX 22 00:34:33
    INDEX 23 00:34:35
    INDEX 24 00:37:31
    INDEX 25 00:37:33
    INDEX 26 00:40:07
    INDEX 27 00:40:09
    INDEX 28 00:40:11
    INDEX 29 00:40:13
    INDEX 30 00:43:66
    INDEX 31 00:43:68
    INDEX 32 00:47:23
    INDEX 33 00:47:25
    INDEX 34 00:49:00
    INDEX 35 00:49:02
    INDEX 36 00:51:58
    INDEX 37 00:51:60
    INDEX 38 00:54:53
    INDEX 39 00:54:55
    INDEX 40 00:57:30
    INDEX 41 00:57:32
    INDEX 42 01:00:03
    INDEX 43 01:00:05
    INDEX 44 01:03:59
    INDEX 45 01:03:61
    INDEX 46 01:07:25
    INDEX 47 01:07:27
    INDEX 48 01:13:02
    INDEX 49 01:13:04
    INDEX 50 01:14:37
    INDEX 51 01:14:39
    INDEX 52 01:15:67
    INDEX 53 01:15:69
    INDEX 54 01:19:45
    INDEX 55 01:19:47
    INDEX 56 01:22:16
    INDEX 57 01:22:18
    INDEX 58 01:22:20
    INDEX 59 01:22:22
FILE "Voice Idol Maniacs - Pool Bar Story (Japan) (Disc 1) (2M) (Track 07).bin" BINARY
  TRACK 07 AUDIO
    INDEX 00 00:00:00
    INDEX 01 00:02:00
    INDEX 02 00:05:09
    INDEX 03 00:05:11
    INDEX 04 00:07:67
    INDEX 05 00:07:69
    INDEX 06 00:11:15
    INDEX 07 00:11:17
    INDEX 08 00:13:30
    INDEX 09 00:13:32
    INDEX 10 00:17:34
    INDEX 11 00:17:36
    INDEX 12 00:22:50
    INDEX 13 00:22:52
    INDEX 14 00:25:05
    INDEX 15 00:25:07
    INDEX 16 00:27:56
    INDEX 17 00:27:58
    INDEX 18 00:30:18
    INDEX 19 00:30:20
    INDEX 20 00:32:42
    INDEX 21 00:32:44
    INDEX 22 00:35:33
    INDEX 23 00:35:35
    INDEX 24 00:38:12
    INDEX 25 00:38:14
    INDEX 26 00:42:53
    INDEX 27 00:42:55
    INDEX 28 00:42:57
    INDEX 29 00:42:59
    INDEX 30 00:42:61
    INDEX 31 00:42:63
    INDEX 32 00:45:36
    INDEX 33 00:45:38
    INDEX 34 00:48:03
    INDEX 35 00:48:05
    INDEX 36 00:50:64
    INDEX 37 00:50:66
    INDEX 38 00:52:63
    INDEX 39 00:52:65
    INDEX 40 00:56:06
    INDEX 41 00:56:08
    INDEX 42 01:01:30
    INDEX 43 01:01:32
    INDEX 44 01:03:62
    INDEX 45 01:03:64
    INDEX 46 01:06:26
    INDEX 47 01:06:28
    INDEX 48 01:08:70
    INDEX 49 01:08:72
    INDEX 50 01:11:14
    INDEX 51 01:11:16
    INDEX 52 01:13:63
    INDEX 53 01:13:65
    INDEX 54 01:16:26
    INDEX 55 01:16:28
    INDEX 56 01:21:28
    INDEX 57 01:21:30
    INDEX 58 01:21:32
    INDEX 59 01:21:34
FILE "Voice Idol Maniacs - Pool Bar Story (Japan) (Disc 1) (2M) (Track 08).bin" BINARY
  TRACK 08 AUDIO
    INDEX 00 00:00:00
    INDEX 01 00:02:00
    INDEX 02 00:04:64
    INDEX 03 00:04:66
    INDEX 04 00:06:37
    INDEX 05 00:06:39
    INDEX 06 00:09:07
    INDEX 07 00:09:09
    INDEX 08 00:13:23
    INDEX 09 00:13:25
    INDEX 10 00:16:12
    INDEX 11 00:16:14
    INDEX 12 00:19:59
    INDEX 13 00:19:61
    INDEX 14 00:21:30
    INDEX 15 00:21:32
    INDEX 16 00:25:18
    INDEX 17 00:25:20
    INDEX 18 00:27:63
    INDEX 19 00:27:65
    INDEX 20 00:32:67
    INDEX 21 00:32:69
    INDEX 22 00:35:02
    INDEX 23 00:35:04
    INDEX 24 00:37:69
    INDEX 25 00:37:71
    INDEX 26 00:40:06
    INDEX 27 00:40:08
    INDEX 28 00:40:10
    INDEX 29 00:40:12
    INDEX 30 00:40:14
    INDEX 31 00:40:16
    INDEX 32 00:43:07
    INDEX 33 00:43:09
    INDEX 34 00:44:65
    INDEX 35 00:44:67
    INDEX 36 00:47:45
    INDEX 37 00:47:47
    INDEX 38 00:51:12
    INDEX 39 00:51:14
    INDEX 40 00:53:37
    INDEX 41 00:53:39
    INDEX 42 00:56:56
    INDEX 43 00:56:58
    INDEX 44 00:57:54
    INDEX 45 00:57:56
    INDEX 46 01:01:35
    INDEX 47 01:01:37
    INDEX 48 01:03:72
    INDEX 49 01:03:74
    INDEX 50 01:08:01
    INDEX 51 01:08:03
    INDEX 52 01:09:72
    INDEX 53 01:09:74
    INDEX 54 01:12:53
    INDEX 55 01:12:55
    INDEX 56 01:14:50
    INDEX 57 01:14:52
    INDEX 58 01:14:54
    INDEX 59 01:14:56
FILE "Voice Idol Maniacs - Pool Bar Story (Japan) (Disc 1) (2M) (Track 09).bin" BINARY
  TRACK 09 AUDIO
    INDEX 00 00:00:00
    INDEX 01 00:02:00
    INDEX 02 00:04:00
    INDEX 03 00:04:02
    INDEX 04 00:06:30
    INDEX 05 00:06:32
    INDEX 06 00:08:52
    INDEX 07 00:08:54
    INDEX 08 00:10:17
    INDEX 09 00:10:19
    INDEX 10 00:12:70
    INDEX 11 00:12:72
    INDEX 12 00:16:24
    INDEX 13 00:16:26
    INDEX 14 00:19:12
    INDEX 15 00:19:14
    INDEX 16 00:22:27
    INDEX 17 00:22:29
    INDEX 18 00:26:55
    INDEX 19 00:26:57
    INDEX 20 00:30:52
    INDEX 21 00:30:54
    INDEX 22 00:33:54
    INDEX 23 00:33:56
    INDEX 24 00:38:30
    INDEX 25 00:38:32
    INDEX 26 00:42:44
    INDEX 27 00:42:46
    INDEX 28 00:44:34
    INDEX 29 00:44:36
    INDEX 30 00:46:45
    INDEX 31 00:46:47
    INDEX 32 00:49:15
    INDEX 33 00:49:17
    INDEX 34 00:52:24
    INDEX 35 00:52:26
    INDEX 36 00:55:11
    INDEX 37 00:55:13
    INDEX 38 00:57:47
    INDEX 39 00:57:49
    INDEX 40 01:00:63
    INDEX 41 01:00:65
    INDEX 42 01:04:22
    INDEX 43 01:04:24
    INDEX 44 01:08:21
    INDEX 45 01:08:23
    INDEX 46 01:12:29
    INDEX 47 01:12:31
    INDEX 48 01:17:54
    INDEX 49 01:17:56
    INDEX 50 01:22:13
    INDEX 51 01:22:15
    INDEX 52 01:26:33
    INDEX 53 01:26:35
    INDEX 54 01:30:71
    INDEX 55 01:30:73
    INDEX 56 01:35:42
    INDEX 57 01:35:44
    INDEX 58 01:37:33
    INDEX 59 01:37:35
FILE "Voice Idol Maniacs - Pool Bar Story (Japan) (Disc 1) (2M) (Track 10).bin" BINARY
  TRACK 10 AUDIO
    INDEX 00 00:00:00
    INDEX 01 00:02:00
    INDEX 02 00:04:21
    INDEX 03 00:04:23
    INDEX 04 00:06:13
    INDEX 05 00:06:15
    INDEX 06 00:08:64
    INDEX 07 00:08:66
    INDEX 08 00:11:38
    INDEX 09 00:11:40
    INDEX 10 00:13:61
    INDEX 11 00:13:63
    INDEX 12 00:16:25
    INDEX 13 00:16:27
    INDEX 14 00:18:02
    INDEX 15 00:18:04
    INDEX 16 00:21:34
    INDEX 17 00:21:36
    INDEX 18 00:24:35
    INDEX 19 00:24:37
    INDEX 20 00:27:11
    INDEX 21 00:27:13
    INDEX 22 00:28:51
    INDEX 23 00:28:53
    INDEX 24 00:33:06
    INDEX 25 00:33:08
    INDEX 26 00:36:19
    INDEX 27 00:36:21
    INDEX 28 00:36:23
    INDEX 29 00:36:25
    INDEX 30 00:36:27
    INDEX 31 00:36:29
    INDEX 32 00:38:51
    INDEX 33 00:38:53
    INDEX 34 00:40:55
    INDEX 35 00:40:57
    INDEX 36 00:43:66
    INDEX 37 00:43:68
    INDEX 38 00:46:47
    INDEX 39 00:46:49
    INDEX 40 00:48:69
    INDEX 41 00:48:71
    INDEX 42 00:51:29
    INDEX 43 00:51:31
    INDEX 44 00:53:11
    INDEX 45 00:53:13
    INDEX 46 00:56:21
    INDEX 47 00:56:23
    INDEX 48 00:59:17
    INDEX 49 00:59:19
    INDEX 50 01:01:71
    INDEX 51 01:01:73
    INDEX 52 01:03:26
    INDEX 53 01:03:28
    INDEX 54 01:07:60
    INDEX 55 01:07:62
    INDEX 56 01:11:11
    INDEX 57 01:11:13
    INDEX 58 01:11:15
    INDEX 59 01:11:17
FILE "Voice Idol Maniacs - Pool Bar Story (Japan) (Disc 1) (2M) (Track 11).bin" BINARY
  TRACK 11 AUDIO
    INDEX 00 00:00:00
    INDEX 01 00:02:00
    INDEX 02 00:08:17
    INDEX 03 00:08:19
    INDEX 04 00:11:27
    INDEX 05 00:11:29
    INDEX 06 00:15:41
    INDEX 07 00:15:43
    INDEX 08 00:18:37
    INDEX 09 00:18:39
    INDEX 10 00:21:00
    INDEX 11 00:21:02
    INDEX 12 00:23:31
    INDEX 13 00:23:33
    INDEX 14 00:25:56
    INDEX 15 00:25:58
    INDEX 16 00:28:68
    INDEX 17 00:28:70
    INDEX 18 00:32:30
    INDEX 19 00:32:32
    INDEX 20 00:35:28
    INDEX 21 00:35:30
    INDEX 22 00:37:66
    INDEX 23 00:37:68
    INDEX 24 00:40:72
    INDEX 25 00:40:74
    INDEX 26 00:44:39
    INDEX 27 00:44:41
    INDEX 28 00:47:17
    INDEX 29 00:47:19
    INDEX 30 00:47:21
    INDEX 31 00:47:23
    INDEX 32 00:53:34
    INDEX 33 00:53:36
    INDEX 34 00:56:65
    INDEX 35 00:56:67
    INDEX 36 01:01:63
    INDEX 37 01:01:65
    INDEX 38 01:04:59
    INDEX 39 01:04:61
    INDEX 40 01:07:67
    INDEX 41 01:07:69
    INDEX 42 01:10:22
    INDEX 43 01:10:24
    INDEX 44 01:13:31
    INDEX 45 01:13:33
    INDEX 46 01:16:10
    INDEX 47 01:16:12
    INDEX 48 01:19:59
    INDEX 49 01:19:61
    INDEX 50 01:23:66
    INDEX 51 01:23:68
    INDEX 52 01:26:27
    INDEX 53 01:26:29
    INDEX 54 01:29:66
    INDEX 55 01:29:68
    INDEX 56 01:33:43
    INDEX 57 01:33:45
    INDEX 58 01:36:59
    INDEX 59 01:36:61
FILE "Voice Idol Maniacs - Pool Bar Story (Japan) (Disc 1) (2M) (Track 12).bin" BINARY
  TRACK 12 AUDIO
    INDEX 00 00:00:00
    INDEX 01 00:02:00
    INDEX 02 00:05:10
    INDEX 03 00:05:12
